<svg width="86" height="86" viewBox="0 0 86 86" fill="none" xmlns="http://www.w3.org/2000/svg">
<path d="M57.3443 75.5663H8.16485C8.15137 75.5662 8.13802 75.5635 8.12558 75.5583C8.11313 75.5531 8.10183 75.5455 8.09233 75.536C8.08282 75.5264 8.0753 75.515 8.07018 75.5026C8.06506 75.4901 8.06245 75.4767 8.0625 75.4632V56.0143L31.9757 32.1004C31.9867 32.0892 31.9998 32.0803 32.0143 32.0742C32.0287 32.0681 32.0442 32.065 32.0599 32.0649C32.0756 32.0648 32.0911 32.0679 32.1056 32.0739C32.1201 32.0798 32.1333 32.0886 32.1444 32.0997L53.981 53.9363C54.1057 54.0611 54.2538 54.1601 54.4169 54.2276C54.5799 54.2951 54.7546 54.3299 54.931 54.3299C55.1075 54.3299 55.2822 54.2951 55.4452 54.2276C55.6082 54.1601 55.7563 54.0611 55.8811 53.9363C56.0059 53.8116 56.1048 53.6635 56.1724 53.5004C56.2399 53.3374 56.2746 53.1627 56.2746 52.9863C56.2746 52.8098 56.2399 52.6351 56.1724 52.4721C56.1048 52.3091 56.0059 52.161 55.8811 52.0362L50.0175 46.1726L60.7693 35.4335C60.7931 35.4144 60.8227 35.404 60.8532 35.404C60.8838 35.404 60.9134 35.4144 60.9372 35.4335L75.5663 50.076V57.2098C75.5663 57.5662 75.7078 57.9079 75.9598 58.1599C76.2118 58.4119 76.5536 58.5535 76.91 58.5535C77.2664 58.5535 77.6082 58.4119 77.8602 58.1599C78.1122 57.9079 78.2538 57.5662 78.2538 57.2098V8.16485C78.2529 7.4252 77.9587 6.71608 77.4357 6.19307C76.9127 5.67005 76.2036 5.37585 75.4639 5.375H8.16485C7.42516 5.37574 6.71598 5.6699 6.19294 6.19294C5.6699 6.71598 5.37574 7.42516 5.375 8.16485V75.4632C5.37571 76.203 5.66985 76.9123 6.19287 77.4354C6.7159 77.9586 7.4251 78.2529 8.16485 78.2538H57.3443C57.7006 78.2538 58.0424 78.1122 58.2944 77.8602C58.5464 77.6082 58.688 77.2664 58.688 76.91C58.688 76.5536 58.5464 76.2118 58.2944 75.9598C58.0424 75.7078 57.7006 75.5663 57.3443 75.5663V75.5663ZM8.16485 8.0625H75.4639C75.491 8.06254 75.517 8.07333 75.5362 8.09252C75.5554 8.11171 75.5662 8.13772 75.5662 8.16485V46.2747L62.8374 33.5346C62.3114 33.0082 61.5978 32.7122 60.8536 32.7118C60.1095 32.7115 59.3956 33.0067 58.8691 33.5327L48.1167 44.2718L34.0445 30.1996C33.518 29.674 32.8044 29.3788 32.0604 29.3788C31.3164 29.3788 30.6028 29.674 30.0762 30.1996L8.0625 52.2139V8.16485C8.06254 8.13772 8.07333 8.11171 8.09252 8.09252C8.11171 8.07333 8.13772 8.06254 8.16485 8.0625V8.0625Z" fill="#4A46FF"/>
<path d="M48.7044 31.4591C50.0306 31.4593 51.3272 31.0661 52.43 30.3293C53.5328 29.5926 54.3924 28.5454 54.9 27.3201C55.4077 26.0948 55.5406 24.7465 55.2819 23.4457C55.0232 22.1449 54.3846 20.95 53.4469 20.0121C52.5091 19.0743 51.3142 18.4355 50.0135 18.1767C48.7127 17.918 47.3644 18.0507 46.139 18.5582C44.9137 19.0657 43.8664 19.9252 43.1295 21.028C42.3927 22.1307 41.9994 23.4272 41.9994 24.7535C42.0014 26.5312 42.7084 28.2356 43.9654 29.4927C45.2224 30.7498 46.9266 31.457 48.7044 31.4591ZM48.7044 20.7354C49.4991 20.7354 50.2759 20.971 50.9367 21.4125C51.5975 21.8541 52.1125 22.4816 52.4166 23.2158C52.7208 23.95 52.8003 24.758 52.6453 25.5374C52.4903 26.3168 52.1076 27.0328 51.5456 27.5948C50.9837 28.1567 50.2677 28.5394 49.4883 28.6944C48.7088 28.8495 47.9009 28.7699 47.1667 28.4658C46.4325 28.1617 45.8049 27.6466 45.3634 26.9859C44.9219 26.3251 44.6862 25.5482 44.6862 24.7535C44.6875 23.6882 45.1112 22.6669 45.8645 21.9137C46.6178 21.1604 47.6391 20.7366 48.7044 20.7354Z" fill="#F3B755"/>
<path d="M79.2812 69.2587H71.947V61.9238C71.947 61.5674 71.8055 61.2257 71.5535 60.9737C71.3015 60.7217 70.9597 60.5801 70.6033 60.5801C70.2469 60.5801 69.9051 60.7217 69.6531 60.9737C69.4011 61.2257 69.2595 61.5674 69.2595 61.9238V69.2587H61.924C61.5676 69.2587 61.2258 69.4003 60.9738 69.6523C60.7218 69.9043 60.5803 70.2461 60.5803 70.6024C60.5803 70.9588 60.7218 71.3006 60.9738 71.5526C61.2258 71.8046 61.5676 71.9462 61.924 71.9462H69.2595V79.281C69.2595 79.6374 69.4011 79.9792 69.6531 80.2312C69.9051 80.4832 70.2469 80.6248 70.6033 80.6248C70.9597 80.6248 71.3015 80.4832 71.5535 80.2312C71.8055 79.9792 71.947 79.6374 71.947 79.281V71.9462H79.2812C79.6376 71.9462 79.9794 71.8046 80.2314 71.5526C80.4834 71.3006 80.625 70.9588 80.625 70.6024C80.625 70.2461 80.4834 69.9043 80.2314 69.6523C79.9794 69.4003 79.6376 69.2587 79.2812 69.2587Z" fill="#F3B755"/>
</svg>
