<svg width="12" height="20" viewBox="0 0 12 20" fill="none" xmlns="http://www.w3.org/2000/svg">
<path d="M9 18H2C1.45 18 0.979333 17.8043 0.588 17.413C0.196 17.021 0 16.55 0 16V5H2V16H9V18ZM5.5 4C4.95 4 4.47933 3.804 4.088 3.412C3.696 3.02067 3.5 2.55 3.5 2C3.5 1.45 3.696 0.979 4.088 0.587C4.47933 0.195667 4.95 0 5.5 0C6.05 0 6.521 0.195667 6.913 0.587C7.30433 0.979 7.5 1.45 7.5 2C7.5 2.55 7.30433 3.02067 6.913 3.412C6.521 3.804 6.05 4 5.5 4ZM10 20V15H5C4.45 15 3.97933 14.8043 3.588 14.413C3.196 14.021 3 13.55 3 13V7.5C3 6.8 3.24167 6.20833 3.725 5.725C4.20833 5.24167 4.8 5 5.5 5C6.2 5 6.79167 5.24167 7.275 5.725C7.75833 6.20833 8 6.8 8 7.5V12H10C10.55 12 11.021 12.1957 11.413 12.587C11.8043 12.979 12 13.45 12 14V20H10Z" fill="#5B5A87"/>
</svg>
