<svg width="14" height="16" viewBox="0 0 14 16" fill="none" xmlns="http://www.w3.org/2000/svg">
<path d="M11.0001 2.4H9.4001C9.4001 1.76348 9.14724 1.15303 8.69715 0.702944C8.24707 0.252856 7.63662 0 7.0001 0C6.36358 0 5.75313 0.252856 5.30304 0.702944C4.85295 1.15303 4.6001 1.76348 4.6001 2.4H3.0001C2.36358 2.4 1.75313 2.65286 1.30304 3.10294C0.852954 3.55303 0.600098 4.16348 0.600098 4.8V13.6C0.600098 14.2365 0.852954 14.847 1.30304 15.2971C1.75313 15.7471 2.36358 16 3.0001 16H11.0001C11.6366 16 12.2471 15.7471 12.6972 15.2971C13.1472 14.847 13.4001 14.2365 13.4001 13.6V4.8C13.4001 4.16348 13.1472 3.55303 12.6972 3.10294C12.2471 2.65286 11.6366 2.4 11.0001 2.4ZM7.0001 12.6H4.6001C4.33488 12.6 4.08053 12.4946 3.89299 12.3071C3.70545 12.1196 3.6001 11.8652 3.6001 11.6C3.6001 11.3348 3.70545 11.0804 3.89299 10.8929C4.08053 10.7054 4.33488 10.6 4.6001 10.6H7.0001C7.26531 10.6 7.51967 10.7054 7.7072 10.8929C7.89474 11.0804 8.0001 11.3348 8.0001 11.6C8.0001 11.8652 7.89474 12.1196 7.7072 12.3071C7.51967 12.4946 7.26531 12.6 7.0001 12.6ZM9.4001 7.8H4.6001C4.33488 7.8 4.08053 7.69464 3.89299 7.50711C3.70545 7.31957 3.6001 7.06522 3.6001 6.8C3.6001 6.53478 3.70545 6.28043 3.89299 6.09289C4.08053 5.90536 4.33488 5.8 4.6001 5.8H9.4001C9.66531 5.8 9.91967 5.90536 10.1072 6.09289C10.2947 6.28043 10.4001 6.53478 10.4001 6.8C10.4001 7.06522 10.2947 7.31957 10.1072 7.50711C9.91967 7.69464 9.66531 7.8 9.4001 7.8Z" fill="#4A46FF"/>
</svg>
