<svg width="49" height="36" viewBox="0 0 49 36" fill="none" xmlns="http://www.w3.org/2000/svg">
<path d="M12.2061 35.5088C8.8402 35.5088 5.96473 34.3436 3.57973 32.0134C1.19324 29.6831 0 26.835 0 23.4691C0 20.584 0.869225 18.0133 2.60768 15.757C4.34613 13.5007 6.62091 12.0582 9.43202 11.4294C10.3567 8.02646 12.2061 5.27083 14.9803 3.1625C17.7544 1.05417 20.8984 0 24.4123 0C28.7399 0 32.4106 1.5069 35.4244 4.52071C38.4397 7.536 39.9474 11.2075 39.9474 15.5351C42.4996 15.831 44.6175 16.931 46.3012 18.8352C47.9834 20.7408 48.8246 22.9697 48.8246 25.5219C48.8246 28.2961 47.854 30.6544 45.9128 32.597C43.9702 34.5382 41.6118 35.5088 38.8377 35.5088H26.6316C25.411 35.5088 24.3664 35.0745 23.4979 34.206C22.628 33.3361 22.193 32.2908 22.193 31.0702V19.6408L18.6421 23.0807L15.5351 19.9737L24.4123 11.0965L33.2895 19.9737L30.1825 23.0807L26.6316 19.6408V31.0702H38.8377C40.3912 31.0702 41.7043 30.5338 42.777 29.4612C43.8496 28.3885 44.386 27.0754 44.386 25.5219C44.386 23.9684 43.8496 22.6553 42.777 21.5827C41.7043 20.51 40.3912 19.9737 38.8377 19.9737H35.5088V15.5351C35.5088 12.4651 34.4272 9.84776 32.2642 7.68321C30.0996 5.52013 27.4823 4.4386 24.4123 4.4386C21.3423 4.4386 18.7257 5.52013 16.5626 7.68321C14.3981 9.84776 13.3158 12.4651 13.3158 15.5351H12.2061C10.0608 15.5351 8.2299 16.2933 6.71338 17.8099C5.19686 19.3264 4.4386 21.1573 4.4386 23.3026C4.4386 25.448 5.19686 27.2789 6.71338 28.7954C8.2299 30.3119 10.0608 31.0702 12.2061 31.0702H17.7544V35.5088H12.2061Z" fill="#4A46FF"/>
</svg>
