<svg width="68" height="68" viewBox="0 0 68 68" fill="none" xmlns="http://www.w3.org/2000/svg">
<g clip-path="url(#clip0_52_512)">
<path d="M66.4831 1.57842C65.4935 0.572375 64.1711 0.0118891 62.7599 0.000188716L62.7156 0C59.8267 0 57.4568 2.35065 57.433 5.23989C57.4215 6.6511 57.9599 7.98249 58.9497 8.98854C59.9396 9.99458 61.2617 10.5551 62.6729 10.5668L62.7173 10.567C65.6061 10.567 67.976 8.21631 67.9998 5.32707C68.0113 3.91586 67.4727 2.58446 66.4831 1.57842ZM62.7171 8.61507L62.689 8.61488C61.7992 8.60752 60.9654 8.25406 60.3415 7.61978C59.7174 6.98532 59.3778 6.14591 59.3851 5.25612C59.4 3.43425 60.8941 1.95208 62.7156 1.95208L62.7437 1.95227C63.6335 1.95963 64.4672 2.31309 65.0911 2.94737C65.7152 3.58183 66.0549 4.42124 66.0475 5.31103C66.0326 7.13289 64.5386 8.61507 62.7171 8.61507Z" fill="#F3B755"/>
<path d="M5.32707 28.717L5.28272 28.7168C2.39367 28.7168 0.0239599 31.0674 0.000181671 33.9569C-0.0237853 36.8699 2.32667 39.2596 5.23988 39.2838H5.28404C8.17309 39.2838 10.543 36.9331 10.5668 34.0439C10.5907 31.1307 8.24027 28.741 5.32707 28.717ZM5.28404 37.3317L5.25592 37.3315C3.41896 37.3164 1.93678 35.8097 1.95188 33.9727C1.96698 32.1509 3.46104 30.6687 5.28253 30.6687H5.31065C7.14761 30.6838 8.62978 32.1907 8.61469 34.0276C8.59978 35.8495 7.10571 37.3317 5.28404 37.3317Z" fill="#F3B755"/>
<path d="M25.2096 8.83417L25.1653 8.83398C22.2762 8.83398 19.9063 11.1846 19.8828 14.0739C19.8588 16.9871 22.2092 19.3768 25.1224 19.4008L25.1668 19.4009C28.0557 19.4009 30.4256 17.0503 30.4493 14.1611C30.4733 11.2477 28.1228 8.85795 25.2096 8.83417ZM25.1666 17.4491L25.1385 17.4489C23.3015 17.4338 21.8194 15.9269 21.8344 14.0901C21.8495 12.2682 23.3436 10.7861 25.1651 10.7861L25.1932 10.7862C27.0302 10.8013 28.5124 12.3082 28.4973 14.145C28.4823 15.9669 26.9883 17.4491 25.1666 17.4491Z" fill="#F3B755"/>
<path d="M39.5679 23.1926L39.5236 23.1924C36.6345 23.1924 34.2648 25.543 34.241 28.4323C34.2171 31.3455 36.5677 33.7352 39.4809 33.7592L39.5251 33.7593C42.4139 33.7593 44.7838 31.4087 44.8076 28.5195C44.8316 25.6061 42.4809 23.2165 39.5679 23.1926ZM39.5249 31.8075L39.4968 31.8073C37.6598 31.7922 36.1776 30.2853 36.1927 28.4485C36.2076 26.6266 37.7017 25.1445 39.5232 25.1445L39.5513 25.1447C41.3883 25.1597 42.8702 26.6666 42.8552 28.5034C42.8404 30.3253 41.3464 31.8075 39.5249 31.8075Z" fill="#F3B755"/>
<path d="M58.9527 7.61618L41.8741 24.7383L43.2561 26.1167L60.3347 8.9946L58.9527 7.61618Z" fill="#F3B755"/>
<path d="M28.9017 16.4743L27.5215 17.8545L35.794 26.127L37.1742 24.7469L28.9017 16.4743Z" fill="#F3B755"/>
<path d="M21.4302 16.4727L7.63922 30.2637L9.0194 31.6439L22.8104 17.8529L21.4302 16.4727Z" fill="#F3B755"/>
<path d="M55.9971 20.1016V67.9999H67.9998V20.1016H55.9971ZM57.9492 66.0478L57.949 22.0535H66.0479V66.0478H57.9492Z" fill="#4A46FF"/>
<path d="M37.3314 40.2031V68H49.3341V40.2031H37.3314ZM47.3824 66.048H39.2835V42.1552H47.3824V66.048Z" fill="#4A46FF"/>
<path d="M18.6655 38.7676V68.0002H30.6682V38.7676H18.6655ZM28.7165 66.0482H20.6176V40.7197H28.7165V66.0482Z" fill="#4A46FF"/>
<path d="M0 45.9473V68.0008H12.0027L12.0029 45.9473H0ZM10.0508 66.0487H1.95189V47.899H10.0508V66.0487Z" fill="#4A46FF"/>
</g>
<defs>
<clipPath id="clip0_52_512">
<rect width="68" height="68" fill="white"/>
</clipPath>
</defs>
</svg>
