<svg width="6" height="6" viewBox="0 0 6 6" fill="none" xmlns="http://www.w3.org/2000/svg">
<path d="M5.86711 0.745711C5.82359 0.668497 5.76032 0.604239 5.6838 0.559519C5.60728 0.5148 5.52024 0.491225 5.4316 0.491211H0.568605C0.48002 0.491254 0.393037 0.514831 0.316556 0.559529C0.240075 0.604228 0.176843 0.668443 0.133329 0.745603C0.0898143 0.822764 0.0675809 0.9101 0.0689034 0.998675C0.0702258 1.08725 0.0950566 1.17388 0.140855 1.24971L2.57235 5.26721C2.61689 5.3408 2.67966 5.40165 2.7546 5.44388C2.82953 5.48612 2.91409 5.50831 3.0001 5.50831C3.08612 5.50831 3.17068 5.48612 3.24561 5.44388C3.32055 5.40165 3.38332 5.3408 3.42786 5.26721L5.85935 1.24971C5.90517 1.17392 5.93003 1.08731 5.93139 0.998759C5.93275 0.910205 5.91057 0.822879 5.86711 0.745711Z" fill="#5B5A87"/>
</svg>
