<svg width="12" height="12" viewBox="0 0 12 12" fill="none" xmlns="http://www.w3.org/2000/svg">
    <g clip-path="url(#clip0_3279_20851)">
        <g clip-path="url(#clip1_3279_20851)">
            <path d="M6.74408 5.59998H8.19671L6.00008 7.79661L3.80345 5.59998H5.25608H5.94408H6.05608H6.74408Z" fill="#4A46FF" stroke="white" stroke-width="1.6" />
            <path d="M10.6778 10.606L10.6778 10.606C10.8841 10.3997 11 10.12 11 9.82822V8.32822C11 8.3017 11.0105 8.27627 11.0293 8.25751L10.466 7.69421L11.0293 8.25751C11.048 8.23876 11.0735 8.22822 11.1 8.22822C11.1265 8.22822 11.152 8.23876 11.1707 8.25751L11.734 7.69421L11.1707 8.25751C11.1895 8.27627 11.2 8.3017 11.2 8.32822V9.82576C11.1975 10.1704 11.0595 10.5002 10.8158 10.744C10.572 10.9877 10.2421 11.1257 9.89747 11.1282H2.10253C1.75787 11.1257 1.428 10.9877 1.18424 10.744C0.940485 10.5002 0.802476 10.1703 0.8 9.82568V8.32822C0.8 8.3017 0.810536 8.27627 0.829289 8.25751C0.848043 8.23876 0.873478 8.22822 0.9 8.22822C0.926522 8.22822 0.951957 8.23876 0.970711 8.25751C0.989464 8.27627 1 8.3017 1 8.32822V9.82822C1 10.12 1.11589 10.3997 1.32218 10.606L1.32218 10.606C1.52847 10.8123 1.80826 10.9282 2.1 10.9282H9.9C10.1917 10.9282 10.4715 10.8123 10.6778 10.606Z" fill="#4A46FF" stroke="white" stroke-width="1.6" />
        </g>
    </g>
    <defs>
        <clipPath id="clip0_3279_20851">
            <rect width="12" height="12" fill="white" />
        </clipPath>
        <clipPath id="clip1_3279_20851">
            <rect width="12" height="12" fill="white" />
        </clipPath>
    </defs>
</svg>