<svg width="19" height="19" viewBox="0 0 19 19" fill="none" xmlns="http://www.w3.org/2000/svg">
<path d="M18.986 4.09165C18.986 4.06994 19.0009 4.04881 18.9999 4.02734L13.2018 9.61417L18.993 15.0225C18.9964 14.9839 18.986 14.9449 18.986 14.9055V4.09165Z" fill="white"/>
<path d="M12.3167 10.4746L9.94968 12.7519C9.82991 12.8672 9.67521 12.925 9.52043 12.925C9.36888 12.925 9.21732 12.8696 9.09837 12.7588L6.73783 10.5591L0.908813 16.1777C1.05055 16.2286 1.20268 16.2681 1.362 16.2681H17.679C17.9155 16.2681 18.1374 16.1961 18.3303 16.0886L12.3167 10.4746Z" fill="white"/>
<path d="M9.51367 11.4534L18.3624 2.92949C18.1621 2.81037 17.9289 2.73047 17.679 2.73047H1.362C1.03652 2.73047 0.738271 2.85685 0.505981 3.0496L9.51367 11.4534Z" fill="white"/>
<path d="M0 4.30078V14.9068C0 15.0286 0.0279837 15.146 0.0583612 15.2582L5.81507 9.71459L0 4.30078Z" fill="white"/>
</svg>
