<svg width="16" height="16" viewBox="0 0 16 16" fill="none" xmlns="http://www.w3.org/2000/svg">
<g clip-path="url(#clip0_2720_18885)">
<path d="M15.6199 7.01311C13.8599 5.07311 10.9532 3.01311 7.99991 3.06644C5.04658 3.11978 2.13991 5.07311 0.379912 7.01311C0.129744 7.28606 -0.0090332 7.64286 -0.0090332 8.01311C-0.0090332 8.38336 0.129744 8.74016 0.379912 9.01311C1.55325 10.2798 4.49325 12.9331 7.99991 12.9331C11.5066 12.9331 14.4399 10.2664 15.6199 8.97978C15.8608 8.70885 15.9938 8.35895 15.9938 7.99644C15.9938 7.63394 15.8608 7.28404 15.6199 7.01311ZM4.93325 7.99978C4.93325 7.39325 5.1131 6.80034 5.45007 6.29603C5.78704 5.79172 6.26599 5.39866 6.82635 5.16655C7.38671 4.93444 8.00331 4.87371 8.59819 4.99204C9.19306 5.11036 9.73949 5.40244 10.1684 5.83132C10.5973 6.2602 10.8893 6.80663 11.0077 7.4015C11.126 7.99638 11.0653 8.61298 10.8331 9.17334C10.601 9.7337 10.208 10.2126 9.70366 10.5496C9.19935 10.8866 8.60644 11.0664 7.99991 11.0664C7.18658 11.0664 6.40656 10.7433 5.83145 10.1682C5.25634 9.59313 4.93325 8.81311 4.93325 7.99978Z" fill="#5B5A87"/>
<path d="M7.99984 9.33268C8.73622 9.33268 9.33317 8.73573 9.33317 7.99935C9.33317 7.26297 8.73622 6.66602 7.99984 6.66602C7.26346 6.66602 6.6665 7.26297 6.6665 7.99935C6.6665 8.73573 7.26346 9.33268 7.99984 9.33268Z" fill="#5B5A87"/>
</g>
<defs>
<clipPath id="clip0_2720_18885">
<rect width="16" height="16" fill="white"/>
</clipPath>
</defs>
</svg>
