<svg width="16" height="16" viewBox="0 0 16 16" xmlns="http://www.w3.org/2000/svg">
<path d="M15.3333 6.71289C15.3057 6.70351 15.2811 6.68675 15.2623 6.66443C15.2435 6.6421 15.2312 6.61505 15.2267 6.58622C14.9457 5.15791 14.246 3.84553 13.2167 2.81621C12.1874 1.78688 10.875 1.08719 9.44667 0.806221C9.41783 0.801686 9.39079 0.78935 9.36846 0.770549C9.34613 0.751747 9.32938 0.727196 9.32 0.699554C9.25458 0.491118 9.1227 0.309841 8.94452 0.183433C8.76635 0.0570244 8.55168 -0.00755935 8.33333 -0.000446051H7.66667C7.45397 -0.000317174 7.24686 0.0676243 7.07542 0.193507C6.90398 0.31939 6.77714 0.496657 6.71333 0.699554C6.70396 0.727196 6.6872 0.751747 6.66487 0.770549C6.64255 0.78935 6.6155 0.801686 6.58667 0.806221C5.15836 1.08719 3.84598 1.78688 2.81665 2.81621C1.78733 3.84553 1.08763 5.15791 0.806667 6.58622C0.802132 6.61505 0.789797 6.6421 0.770995 6.66443C0.752193 6.68675 0.727642 6.70351 0.7 6.71289C0.497103 6.77669 0.319836 6.90353 0.193953 7.07497C0.0680703 7.24641 0.000128876 7.45353 0 7.66622L0 8.33289C0.000128876 8.54558 0.0680703 8.75269 0.193953 8.92413C0.319836 9.09557 0.497103 9.22241 0.7 9.28622C0.727642 9.2956 0.752193 9.31235 0.770995 9.33468C0.789797 9.35701 0.802132 9.38405 0.806667 9.41289C1.08763 10.8412 1.78733 12.1536 2.81665 13.1829C3.84598 14.2122 5.15836 14.9119 6.58667 15.1929C6.6155 15.1974 6.64255 15.2098 6.66487 15.2286C6.6872 15.2474 6.70396 15.2719 6.71333 15.2996C6.77714 15.5024 6.90398 15.6797 7.07542 15.8056C7.24686 15.9315 7.45397 15.9994 7.66667 15.9996H8.33333C8.54192 16.0017 8.74597 15.9387 8.91692 15.8191C9.08786 15.6996 9.21715 15.5296 9.28667 15.3329C9.29604 15.3052 9.3128 15.2807 9.33513 15.2619C9.35745 15.2431 9.3845 15.2308 9.41333 15.2262C10.8416 14.9453 12.154 14.2456 13.1833 13.2162C14.2127 12.1869 14.9124 10.8745 15.1933 9.44622C15.1979 9.41739 15.2102 9.39034 15.229 9.36801C15.2478 9.34569 15.2724 9.32893 15.3 9.31955C15.5084 9.25413 15.6897 9.12225 15.8161 8.94408C15.9425 8.7659 16.0071 8.55123 16 8.33289V7.66622C16.0022 7.45763 15.9391 7.25358 15.8196 7.08264C15.7 6.91169 15.53 6.78241 15.3333 6.71289ZM13.8267 6.45955C13.8327 6.48396 13.8331 6.50941 13.8279 6.53401C13.8227 6.55861 13.8121 6.58171 13.7967 6.60159C13.7813 6.62147 13.7616 6.63761 13.7391 6.6488C13.7166 6.66 13.6918 6.66595 13.6667 6.66622H11.5267C11.4941 6.66633 11.4623 6.65693 11.435 6.63916C11.4078 6.62139 11.3863 6.59603 11.3733 6.56622C11.0009 5.69366 10.3059 4.99864 9.43333 4.62622C9.40352 4.61321 9.37817 4.59176 9.3604 4.56451C9.34263 4.53727 9.33322 4.50542 9.33333 4.47289V2.36622C9.3336 2.34108 9.33956 2.31633 9.35075 2.29382C9.36194 2.27131 9.37808 2.25162 9.39796 2.23623C9.41784 2.22084 9.44094 2.21014 9.46554 2.20495C9.49014 2.19975 9.5156 2.20019 9.54 2.20622C10.5606 2.4781 11.4913 3.01456 12.2382 3.76139C12.985 4.50822 13.5215 5.43896 13.7933 6.45955H13.8267ZM8 10.3329C7.53851 10.3329 7.08738 10.196 6.70367 9.93965C6.31995 9.68326 6.02089 9.31884 5.84428 8.89248C5.66768 8.46612 5.62147 7.99696 5.7115 7.54434C5.80153 7.09172 6.02376 6.67596 6.35008 6.34964C6.67641 6.02331 7.09217 5.80109 7.54479 5.71105C7.99741 5.62102 8.46657 5.66723 8.89293 5.84383C9.31929 6.02044 9.68371 6.31951 9.9401 6.70322C10.1965 7.08694 10.3333 7.53806 10.3333 7.99955C10.3333 8.61839 10.0875 9.21188 9.64992 9.64947C9.21233 10.0871 8.61884 10.3329 8 10.3329ZM6.48667 2.19955C6.50795 2.19458 6.53008 2.19443 6.55143 2.19911C6.57278 2.20379 6.59282 2.21318 6.61007 2.2266C6.62733 2.24002 6.64136 2.25713 6.65115 2.27667C6.66095 2.29622 6.66625 2.3177 6.66667 2.33955V4.47289C6.66678 4.50542 6.65737 4.53727 6.6396 4.56451C6.62183 4.59176 6.59648 4.61321 6.56667 4.62622C5.69411 4.99864 4.99909 5.69366 4.62667 6.56622C4.61366 6.59603 4.5922 6.62139 4.56496 6.63916C4.53771 6.65693 4.50586 6.66633 4.47333 6.66622H2.36667C2.34153 6.66595 2.31678 6.66 2.29426 6.6488C2.27175 6.63761 2.25206 6.62147 2.23667 6.60159C2.22128 6.58171 2.21059 6.55861 2.20539 6.53401C2.2002 6.50941 2.20063 6.48396 2.20667 6.45955C2.4798 5.43451 3.01982 4.50021 3.77168 3.75186C4.52354 3.00352 5.46036 2.46789 6.48667 2.19955ZM2.20667 9.53289C2.20177 9.50894 2.20221 9.48421 2.20794 9.46046C2.21366 9.4367 2.22455 9.41449 2.23981 9.3954C2.25508 9.37632 2.27436 9.36083 2.29628 9.35002C2.3182 9.33922 2.34223 9.33337 2.36667 9.33289H4.47333C4.50586 9.33277 4.53771 9.34218 4.56496 9.35995C4.5922 9.37772 4.61366 9.40307 4.62667 9.43289C4.99909 10.3054 5.69411 11.0005 6.56667 11.3729C6.59648 11.3859 6.62183 11.4073 6.6396 11.4346C6.65737 11.4618 6.66678 11.4937 6.66667 11.5262V13.6329C6.6664 13.658 6.66044 13.6828 6.64925 13.7053C6.63806 13.7278 6.62192 13.7475 6.60204 13.7629C6.58216 13.7783 6.55906 13.789 6.53446 13.7942C6.50986 13.7994 6.48441 13.7989 6.46 13.7929C5.43941 13.521 4.50867 12.9846 3.76184 12.2377C3.015 11.4909 2.47854 10.5601 2.20667 9.53955V9.53289ZM9.54 13.7862C9.5156 13.7923 9.49014 13.7927 9.46554 13.7875C9.44094 13.7823 9.41784 13.7716 9.39796 13.7562C9.37808 13.7408 9.36194 13.7211 9.35075 13.6986C9.33956 13.6761 9.3336 13.6514 9.33333 13.6262V11.5262C9.33322 11.4937 9.34263 11.4618 9.3604 11.4346C9.37817 11.4073 9.40352 11.3859 9.43333 11.3729C10.3059 11.0005 11.0009 10.3054 11.3733 9.43289C11.3863 9.40307 11.4078 9.37772 11.435 9.35995C11.4623 9.34218 11.4941 9.33277 11.5267 9.33289H13.6333C13.6585 9.33316 13.6832 9.33911 13.7057 9.3503C13.7282 9.3615 13.7479 9.37764 13.7633 9.39751C13.7787 9.41739 13.7894 9.4405 13.7946 9.46509C13.7998 9.48969 13.7994 9.51515 13.7933 9.53955C13.5215 10.5601 12.985 11.4909 12.2382 12.2377C11.4913 12.9846 10.5606 13.521 9.54 13.7929V13.7862Z"/>
</svg>
