<svg width="68" height="68" viewBox="0 0 68 68" fill="none" xmlns="http://www.w3.org/2000/svg">
<path d="M25.7049 25.3421C21.9134 22.6384 17.6159 19.5739 16.6976 11.1691C16.6334 10.5827 16.1074 10.1592 15.5195 10.2232C14.933 10.2873 14.5096 10.8147 14.5735 11.4012C15.5962 20.7576 20.5133 24.2642 24.4643 27.0815C27.4161 29.1865 29.5488 30.7072 29.5488 34.0005C29.5488 37.2939 27.4161 38.8143 24.4645 40.9193C20.5134 43.7369 15.596 47.2434 14.5736 56.5997C14.5096 57.1862 14.933 57.7136 15.5197 57.7777C15.559 57.782 15.5983 57.7841 15.6369 57.7841C16.1748 57.7841 16.6378 57.3789 16.6976 56.8318C17.616 48.4271 21.9135 45.3625 25.7049 42.6587C28.7805 40.4657 31.6854 38.3941 31.6854 34.0004C31.6854 29.6067 28.7805 27.5352 25.7049 25.3421Z" fill="#F3B755"/>
<path d="M53.426 56.5993C52.8488 51.3162 50.9978 47.3557 47.6009 44.1348C47.1731 43.729 46.4968 43.7469 46.0908 44.175C45.6849 44.603 45.7028 45.279 46.1309 45.685C48.0241 47.4801 50.6201 50.5887 51.3022 56.8313C51.362 57.3784 51.825 57.7836 52.3629 57.7836C52.4015 57.7836 52.4408 57.7815 52.4801 57.7772C53.0666 57.7134 53.49 57.186 53.426 56.5993Z" fill="#F3B755"/>
<path d="M52.4803 10.2223C51.8934 10.158 51.3665 10.5818 51.3023 11.1682C50.3837 19.5729 46.0863 22.6375 42.2948 25.3411C39.2192 27.5341 36.3143 29.6058 36.3143 33.9995C36.3143 38.3933 39.2192 40.4648 42.2949 42.6578C42.5092 42.8107 42.7259 42.9651 42.9442 43.1222C43.1331 43.2581 43.3512 43.3235 43.5674 43.3235C43.8993 43.3235 44.2265 43.1693 44.4353 42.8791C44.7798 42.4003 44.671 41.7326 44.1921 41.388C43.9713 41.2291 43.752 41.0728 43.5354 40.9182C40.5835 38.8133 38.4508 37.2926 38.4508 33.9992C38.4508 30.7058 40.5836 29.1853 43.5352 27.0802C47.4864 24.2627 52.4038 20.7562 53.4262 11.3999C53.4902 10.8137 53.0668 10.2863 52.4803 10.2223Z" fill="#F3B755"/>
<path d="M61.5639 0H22.3099C21.7198 0 21.2417 0.478259 21.2417 1.06821C21.2417 1.65817 21.7198 2.13643 22.3099 2.13643H60.4957V6.65578H7.50435V2.13643H18.7489C19.339 2.13643 19.8172 1.65817 19.8172 1.06821C19.8172 0.478259 19.339 0 18.7489 0H6.43613C5.84605 0 5.36792 0.478259 5.36792 1.06821V7.72386C5.36792 8.31381 5.84605 8.79207 6.43613 8.79207H61.5639C62.154 8.79207 62.6321 8.31381 62.6321 7.72386V1.06821C62.6321 0.478259 62.154 0 61.5639 0Z" fill="#4A46FF"/>
<path d="M61.5639 59.207H6.43613C5.84605 59.207 5.36792 59.6853 5.36792 60.2752V66.9309C5.36792 67.5208 5.84605 67.9991 6.43613 67.9991H61.5639C62.154 67.9991 62.6321 67.5208 62.6321 66.9309V60.2752C62.6321 59.6853 62.154 59.207 61.5639 59.207ZM60.4957 65.8628H7.50435V61.3435H60.4957V65.8628Z" fill="#4A46FF"/>
<path d="M57.8194 10.6816C57.2293 10.6816 56.7512 11.1599 56.7512 11.7499V56.2508C56.7512 56.8407 57.2293 57.319 57.8194 57.319C58.4095 57.319 58.8876 56.8407 58.8876 56.2508V11.7499C58.8876 11.1599 58.4095 10.6816 57.8194 10.6816Z" fill="#4A46FF"/>
<path d="M10.1805 10.6816C9.59043 10.6816 9.1123 11.1599 9.1123 11.7499V56.2508C9.1123 56.8407 9.59043 57.319 10.1805 57.319C10.7706 57.319 11.2487 56.8407 11.2487 56.2508V11.7499C11.2487 11.1599 10.7706 10.6816 10.1805 10.6816Z" fill="#4A46FF"/>
</svg>
