<svg width="16" height="16" viewBox="0 0 16 16" fill="none" xmlns="http://www.w3.org/2000/svg">
<path d="M8 0C6.41775 0 4.87104 0.469192 3.55544 1.34824C2.23985 2.22729 1.21447 3.47672 0.608967 4.93853C0.00346633 6.40034 -0.15496 8.00887 0.153721 9.56072C0.462403 11.1126 1.22433 12.538 2.34315 13.6569C3.46197 14.7757 4.88743 15.5376 6.43928 15.8463C7.99113 16.155 9.59966 15.9965 11.0615 15.391C12.5233 14.7855 13.7727 13.7602 14.6518 12.4446C15.5308 11.129 16 9.58225 16 8C16 5.87827 15.1571 3.84344 13.6569 2.34315C12.1566 0.842855 10.1217 0 8 0ZM14.1714 6.85714C14.1828 6.94146 14.1625 7.02701 14.1143 7.09714C14.0865 7.13053 14.0515 7.15715 14.0119 7.17497C13.9723 7.1928 13.9291 7.20136 13.8857 7.2H11.68C11.6401 7.19604 11.6015 7.18372 11.5666 7.16385C11.5318 7.14397 11.5015 7.11698 11.4778 7.08464C11.4541 7.0523 11.4375 7.01533 11.429 6.97614C11.4205 6.93694 11.4204 6.8964 11.4286 6.85714C11.3668 5.49873 11.1286 4.15411 10.72 2.85714C10.704 2.80287 10.7044 2.74505 10.7213 2.69103C10.7382 2.63701 10.7707 2.58922 10.8148 2.55371C10.8589 2.51821 10.9125 2.49659 10.9689 2.49161C11.0252 2.48662 11.0818 2.49849 11.1314 2.52571C11.9236 2.98206 12.6062 3.6063 13.1314 4.35458C13.6566 5.10286 14.0116 5.95705 14.1714 6.85714ZM8 14.2857C7.55429 14.2857 6.52572 12.5029 6.32 9.15429C6.31927 9.07799 6.34791 9.00433 6.4 8.94857C6.42538 8.91905 6.457 8.89553 6.49258 8.87972C6.52815 8.86391 6.5668 8.8562 6.60572 8.85714H9.39429C9.43321 8.8562 9.47185 8.86391 9.50743 8.87972C9.543 8.89553 9.57463 8.91905 9.6 8.94857C9.64944 9.00143 9.67789 9.07051 9.68 9.14286C9.47429 12.5029 8.44572 14.2857 8 14.2857ZM6.60572 7.14286C6.56703 7.14234 6.52884 7.13397 6.49348 7.11826C6.45812 7.10254 6.42631 7.07981 6.4 7.05143C6.35057 6.99857 6.32212 6.92949 6.32 6.85714C6.52572 3.49714 7.55429 1.71429 8 1.71429C8.44572 1.71429 9.47429 3.49714 9.68 6.85714C9.68187 6.89685 9.67575 6.93652 9.66201 6.97382C9.64827 7.01112 9.62718 7.04528 9.6 7.07429C9.57463 7.10381 9.543 7.12733 9.50743 7.14314C9.47185 7.15895 9.43321 7.16666 9.39429 7.16571L6.60572 7.14286ZM4.90286 2.57143C4.95248 2.54421 5.00907 2.53234 5.06544 2.53732C5.12182 2.54231 5.17544 2.56392 5.21951 2.59943C5.26359 2.63493 5.29612 2.68272 5.313 2.73674C5.32987 2.79077 5.33032 2.84858 5.31429 2.90286C4.89789 4.18358 4.64821 5.51262 4.57143 6.85714C4.56848 6.93092 4.53708 7.00069 4.48381 7.05183C4.43055 7.10296 4.35955 7.13149 4.28572 7.13143H2.11429C2.07088 7.13278 2.02773 7.12423 1.98812 7.1064C1.94852 7.08858 1.91349 7.06196 1.88572 7.02857C1.85168 6.97757 1.83195 6.91837 1.82858 6.85714C1.99385 5.95604 2.35481 5.10217 2.886 4.35575C3.41718 3.60933 4.10565 2.98854 4.90286 2.53714V2.57143ZM1.82858 9.2C1.79966 9.12261 1.79966 9.03739 1.82858 8.96C1.85635 8.92661 1.89137 8.89999 1.93098 8.88217C1.97059 8.86435 2.01374 8.85579 2.05715 8.85714H4.32C4.38969 8.86557 4.45384 8.89935 4.50022 8.95204C4.54659 9.00474 4.57194 9.07266 4.57143 9.14286C4.63318 10.5013 4.87137 11.8459 5.28 13.1429C5.29603 13.1971 5.29559 13.255 5.27871 13.309C5.26184 13.363 5.2293 13.4108 5.18523 13.4463C5.14115 13.4818 5.08753 13.5034 5.03115 13.5084C4.97478 13.5134 4.9182 13.5015 4.86858 13.4743C4.08298 13.024 3.40439 12.4086 2.87956 11.6707C2.35474 10.9328 1.99617 10.0899 1.82858 9.2ZM11.0971 13.4629C11.0475 13.4901 10.9909 13.5019 10.9346 13.497C10.8782 13.492 10.8246 13.4704 10.7805 13.4349C10.7364 13.3994 10.7039 13.3516 10.687 13.2975C10.6701 13.2435 10.6697 13.1857 10.6857 13.1314C11.105 11.8397 11.3547 10.4989 11.4286 9.14286C11.4315 9.06908 11.4629 8.99931 11.5162 8.94818C11.5695 8.89704 11.6405 8.86851 11.7143 8.86857H13.92C13.9634 8.86722 14.0066 8.87577 14.0462 8.8936C14.0858 8.91142 14.1208 8.93804 14.1486 8.97143C14.1967 9.04157 14.2171 9.12711 14.2057 9.21143C14.0274 10.1033 13.6569 10.9456 13.1201 11.6798C12.5832 12.414 11.8929 13.0224 11.0971 13.4629Z" fill="#5B5A87"/>
</svg>
