<svg width="24" height="24" viewBox="0 0 24 24" fill="none" xmlns="http://www.w3.org/2000/svg">
<g clip-path="url(#clip0_57_422)">
<path d="M5.434 7.99609H0.478027V23.9877H5.434V7.99609Z" fill="white"/>
<path d="M2.93082 5.90885C4.55346 5.90885 5.86164 4.58879 5.86164 2.95443C5.86164 1.32006 4.55346 0 2.93082 0C1.30818 0 0 1.32006 0 2.95443C0 4.58879 1.30818 5.90885 2.93082 5.90885Z" fill="white"/>
<path d="M13.3459 15.6022C13.3459 13.3519 14.3774 12.0192 16.3648 12.0192C18.1887 12.0192 19.0566 13.3016 19.0566 15.6022V24.0004H23.9874V13.8673C23.9874 9.58024 21.5597 7.50586 18.1635 7.50586C14.7673 7.50586 13.3459 10.146 13.3459 10.146V7.99617H8.59119V23.9878H13.3459V15.5897V15.6022Z" fill="white"/>
</g>
<defs>
<clipPath id="clip0_57_422">
<rect width="24" height="24" fill="white"/>
</clipPath>
</defs>
</svg>
