<svg width="18" height="24" viewBox="0 0 18 24" fill="none" xmlns="http://www.w3.org/2000/svg">
<path d="M9 0C4.20115 0 0.32605 3.8751 0.32605 8.67395C0.32605 10.3472 0.860546 11.9448 1.60419 13.2578L7.25708 23.0413C7.61147 23.6804 8.32607 23.9999 9 23.9999C9.67399 23.9999 10.3537 23.6804 10.7429 23.0413L16.3958 13.2636C17.1453 11.9505 17.674 10.3819 17.674 8.67964C17.674 3.88091 13.7988 0 9 0ZM9 11.236C7.25708 11.236 5.83369 9.81266 5.83369 8.06974C5.83369 6.32681 7.25708 4.90343 9 4.90343C10.7429 4.90343 12.1663 6.32681 12.1663 8.06974C12.1663 9.81847 10.7429 11.236 9 11.236Z" fill="white"/>
</svg>
