<svg width="12" height="12" viewBox="0 0 12 12" fill="none" xmlns="http://www.w3.org/2000/svg">
<g clip-path="url(#clip0_3279_18079)">
<path d="M7.53371 1.99295C7.51053 1.96956 7.48296 1.95099 7.45259 1.93829C7.42221 1.92559 7.38963 1.91902 7.35671 1.91895C7.32382 1.91895 7.29125 1.92545 7.26088 1.93806C7.23051 1.95067 7.20292 1.96915 7.17971 1.99245L1.7187 7.45495C1.67184 7.50183 1.64551 7.5654 1.64551 7.6317C1.64551 7.69799 1.67184 7.76156 1.7187 7.80844L4.1927 10.2824C4.23959 10.3293 4.30316 10.3556 4.36945 10.3556C4.43575 10.3556 4.49932 10.3293 4.5462 10.2824L10.0047 4.82395C10.0514 4.77708 10.0777 4.71361 10.0777 4.64745C10.0777 4.58128 10.0514 4.51781 10.0047 4.47095L7.53371 1.99295Z" fill="#4A46FF"/>
<path d="M1.215 8.40008C1.18356 8.36874 1.14433 8.34634 1.10136 8.33518C1.05839 8.32402 1.01322 8.3245 0.970502 8.33658C0.927713 8.34858 0.888896 8.37177 0.858048 8.40376C0.827201 8.43575 0.805438 8.47538 0.795002 8.51858L0.0420015 11.6571C0.0320641 11.6987 0.0329596 11.7421 0.0446022 11.7833C0.0562449 11.8244 0.0782456 11.8619 0.108502 11.8921C0.138952 11.922 0.176455 11.9437 0.217535 11.9552C0.258614 11.9668 0.301942 11.9677 0.343502 11.9581L3.4795 11.2081C3.52275 11.1977 3.56245 11.176 3.59451 11.1452C3.62658 11.1144 3.64985 11.0756 3.66192 11.0328C3.67399 10.99 3.67444 10.9448 3.6632 10.9018C3.65197 10.8588 3.62946 10.8195 3.598 10.7881L1.215 8.40008Z" fill="#4A46FF"/>
<path d="M11.5999 1.4619L10.5384 0.399902C10.3041 0.166021 9.98652 0.034668 9.65543 0.034668C9.32434 0.034668 9.00678 0.166021 8.77243 0.399902L8.06343 1.1084C8.01656 1.15528 7.99023 1.21886 7.99023 1.28515C7.99023 1.35144 8.01656 1.41502 8.06343 1.4619L10.5384 3.9364C10.5853 3.98327 10.6489 4.0096 10.7152 4.0096C10.7815 4.0096 10.845 3.98327 10.8919 3.9364L11.5999 3.2269C11.8335 2.99259 11.9647 2.67525 11.9647 2.3444C11.9647 2.01356 11.8335 1.69621 11.5999 1.4619Z" fill="#4A46FF"/>
</g>
<defs>
<clipPath id="clip0_3279_18079">
<rect width="12" height="12" fill="white"/>
</clipPath>
</defs>
</svg>
