<svg width="66" height="66" viewBox="0 0 66 66" fill="none" xmlns="http://www.w3.org/2000/svg">
<g clip-path="url(#clip0_52_566)">
<path d="M38.1562 36.8672C38.8678 36.8672 39.4453 36.2896 39.4453 35.5781C39.4453 34.8666 38.8678 34.2891 38.1562 34.2891C37.4447 34.2891 36.8672 34.8666 36.8672 35.5781C36.8672 36.2896 37.4447 36.8672 38.1562 36.8672Z" fill="#4A46FF"/>
<path d="M9.79688 36.8672C10.5084 36.8672 11.0859 36.2896 11.0859 35.5781C11.0859 34.8666 10.5084 34.2891 9.79688 34.2891C9.08537 34.2891 8.50781 34.8666 8.50781 35.5781C8.50781 36.2896 9.08537 36.8672 9.79688 36.8672Z" fill="#4A46FF"/>
<path d="M1.28906 16.2422C2.00107 16.2422 2.57812 15.6651 2.57812 14.9531V2.57812H14.9531C15.6651 2.57812 16.2422 2.00107 16.2422 1.28906C16.2422 0.577057 15.6651 0 14.9531 0H1.28906C0.577057 0 0 0.577057 0 1.28906V14.9531C0 15.6651 0.577057 16.2422 1.28906 16.2422Z" fill="#F3B755"/>
<path d="M16.2422 64.7109C16.2422 63.9989 15.6651 63.4219 14.9531 63.4219H2.57812V51.0469C2.57812 50.3349 2.00107 49.7578 1.28906 49.7578C0.577057 49.7578 0 50.3349 0 51.0469V64.7109C0 65.4229 0.577057 66 1.28906 66H14.9531C15.6651 66 16.2422 65.4229 16.2422 64.7109Z" fill="#F3B755"/>
<path d="M64.7109 49.7578C63.9989 49.7578 63.4219 50.3349 63.4219 51.0469V63.4219H51.0469C50.3349 63.4219 49.7578 63.9989 49.7578 64.7109C49.7578 65.4229 50.3349 66 51.0469 66H64.7109C65.4229 66 66 65.4229 66 64.7109V51.0469C66 50.3349 65.4229 49.7578 64.7109 49.7578Z" fill="#F3B755"/>
<path d="M64.7109 0H51.0469C50.3349 0 49.7578 0.577057 49.7578 1.28906C49.7578 2.00107 50.3349 2.57812 51.0469 2.57812H63.4219V14.9531C63.4219 15.6651 63.9989 16.2422 64.7109 16.2422C65.4229 16.2422 66 15.6651 66 14.9531V1.28906C66 0.577057 65.4229 0 64.7109 0Z" fill="#F3B755"/>
<path d="M8.50781 56.2031C8.50781 56.9151 9.08487 57.4922 9.79688 57.4922H22.6875C23.3995 57.4922 23.9766 56.9151 23.9766 56.2031V43.3125C23.9766 42.6005 23.3995 42.0234 22.6875 42.0234H9.79688C9.08487 42.0234 8.50781 42.6005 8.50781 43.3125V56.2031ZM11.0859 44.6016H21.3984V54.9141H11.0859V44.6016Z" fill="#4A46FF"/>
<path d="M22.6875 8.50781H9.79688C9.08487 8.50781 8.50781 9.08487 8.50781 9.79688V22.6875C8.50781 23.3995 9.08487 23.9766 9.79688 23.9766H22.6875C23.3995 23.9766 23.9766 23.3995 23.9766 22.6875V9.79688C23.9766 9.08487 23.3995 8.50781 22.6875 8.50781ZM21.3984 21.3984H11.0859V11.0859H21.3984V21.3984Z" fill="#4A46FF"/>
<path d="M57.4922 9.79688C57.4922 9.08487 56.9151 8.50781 56.2031 8.50781H43.3125C42.6005 8.50781 42.0234 9.08487 42.0234 9.79688V22.6875C42.0234 23.3995 42.6005 23.9766 43.3125 23.9766H56.2031C56.9151 23.9766 57.4922 23.3995 57.4922 22.6875V9.79688ZM54.9141 21.3984H44.6016V11.0859H54.9141V21.3984Z" fill="#4A46FF"/>
<path d="M57.4922 56.2031V43.3125C57.4922 42.6005 56.9151 42.0234 56.2031 42.0234H43.3125C42.6005 42.0234 42.0234 42.6005 42.0234 43.3125V56.2031C42.0234 56.9151 42.6005 57.4922 43.3125 57.4922H56.2031C56.9151 57.4922 57.4922 56.9151 57.4922 56.2031ZM54.9141 54.9141H44.6016V44.6016H54.9141V54.9141Z" fill="#4A46FF"/>
<path d="M17.5312 47.1797H14.9531C14.2411 47.1797 13.6641 47.7567 13.6641 48.4688V51.0469C13.6641 51.7589 14.2411 52.3359 14.9531 52.3359H17.5312C18.2433 52.3359 18.8203 51.7589 18.8203 51.0469V48.4688C18.8203 47.7567 18.2433 47.1797 17.5312 47.1797Z" fill="#4A46FF"/>
<path d="M14.9531 18.8203H17.5312C18.2433 18.8203 18.8203 18.2433 18.8203 17.5312V14.9531C18.8203 14.2411 18.2433 13.6641 17.5312 13.6641H14.9531C14.2411 13.6641 13.6641 14.2411 13.6641 14.9531V17.5312C13.6641 18.2433 14.2411 18.8203 14.9531 18.8203Z" fill="#4A46FF"/>
<path d="M48.4688 18.8203H51.0469C51.7589 18.8203 52.3359 18.2433 52.3359 17.5312V14.9531C52.3359 14.2411 51.7589 13.6641 51.0469 13.6641H48.4688C47.7567 13.6641 47.1797 14.2411 47.1797 14.9531V17.5312C47.1797 18.2433 47.7567 18.8203 48.4688 18.8203Z" fill="#4A46FF"/>
<path d="M48.4688 52.3359H51.0469C51.7589 52.3359 52.3359 51.7589 52.3359 51.0469V48.4688C52.3359 47.7567 51.7589 47.1797 51.0469 47.1797H48.4688C47.7567 47.1797 47.1797 47.7567 47.1797 48.4688V51.0469C47.1797 51.7589 47.7567 52.3359 48.4688 52.3359Z" fill="#4A46FF"/>
<path d="M13.6641 35.5781C13.6641 36.2901 14.2411 36.8672 14.9531 36.8672H31.7109V43.3125C31.7109 44.0245 32.288 44.6016 33 44.6016C33.712 44.6016 34.2891 44.0245 34.2891 43.3125V35.5781C34.2891 34.8661 33.712 34.2891 33 34.2891H14.9531C14.2411 34.2891 13.6641 34.8661 13.6641 35.5781Z" fill="#4A46FF"/>
<path d="M22.6875 31.7109C23.3995 31.7109 23.9766 31.1339 23.9766 30.4219C23.9766 29.7099 23.3995 29.1328 22.6875 29.1328H9.79688C9.08487 29.1328 8.50781 29.7099 8.50781 30.4219C8.50781 31.1339 9.08487 31.7109 9.79688 31.7109H22.6875Z" fill="#4A46FF"/>
<path d="M27.8438 31.7109H33C33.712 31.7109 34.2891 31.1339 34.2891 30.4219C34.2891 29.7099 33.712 29.1328 33 29.1328H27.8438C27.1317 29.1328 26.5547 29.7099 26.5547 30.4219C26.5547 31.1339 27.1317 31.7109 27.8438 31.7109Z" fill="#4A46FF"/>
<path d="M27.8438 8.50781C27.1317 8.50781 26.5547 9.08487 26.5547 9.79688V22.6875C26.5547 23.3995 27.1317 23.9766 27.8438 23.9766H36.8672V30.4219C36.8672 31.1339 37.4442 31.7109 38.1562 31.7109H43.3125C44.0245 31.7109 44.6016 31.1339 44.6016 30.4219C44.6016 29.7099 44.0245 29.1328 43.3125 29.1328H39.4453V22.6875C39.4453 21.9755 38.8683 21.3984 38.1562 21.3984H29.1328V9.79688C29.1328 9.08487 28.5558 8.50781 27.8438 8.50781Z" fill="#4A46FF"/>
<path d="M56.2031 29.1328H48.4688C47.7567 29.1328 47.1797 29.7099 47.1797 30.4219C47.1797 31.1339 47.7567 31.7109 48.4688 31.7109H56.2031C56.9151 31.7109 57.4922 31.1339 57.4922 30.4219C57.4922 29.7099 56.9151 29.1328 56.2031 29.1328Z" fill="#4A46FF"/>
<path d="M56.2031 34.2891H43.3125C42.6005 34.2891 42.0234 34.8661 42.0234 35.5781C42.0234 36.2901 42.6005 36.8672 43.3125 36.8672H56.2031C56.9151 36.8672 57.4922 36.2901 57.4922 35.5781C57.4922 34.8661 56.9151 34.2891 56.2031 34.2891Z" fill="#4A46FF"/>
<path d="M33 47.1797H27.8438C27.1317 47.1797 26.5547 47.7567 26.5547 48.4688V56.2031C26.5547 56.9151 27.1317 57.4922 27.8438 57.4922C28.5558 57.4922 29.1328 56.9151 29.1328 56.2031V49.7578H33C33.712 49.7578 34.2891 49.1808 34.2891 48.4688C34.2891 47.7567 33.712 47.1797 33 47.1797Z" fill="#4A46FF"/>
<path d="M36.8672 54.9141H33C32.288 54.9141 31.7109 55.4911 31.7109 56.2031C31.7109 56.9151 32.288 57.4922 33 57.4922H38.1562C38.8683 57.4922 39.4453 56.9151 39.4453 56.2031V40.7344C39.4453 40.0224 38.8683 39.4453 38.1562 39.4453C37.4442 39.4453 36.8672 40.0224 36.8672 40.7344V54.9141Z" fill="#4A46FF"/>
<path d="M38.1562 18.8203C38.8683 18.8203 39.4453 18.2433 39.4453 17.5312V9.79688C39.4453 9.08487 38.8683 8.50781 38.1562 8.50781C37.4442 8.50781 36.8672 9.08487 36.8672 9.79688V16.2422H33C32.288 16.2422 31.7109 16.8192 31.7109 17.5312C31.7109 18.2433 32.288 18.8203 33 18.8203H38.1562Z" fill="#4A46FF"/>
</g>
<defs>
<clipPath id="clip0_52_566">
<rect width="66" height="66" fill="white"/>
</clipPath>
</defs>
</svg>
