<svg width="16" height="16" viewBox="0 0 16 16" xmlns="http://www.w3.org/2000/svg">
    <path d="M16 7.20039C16 6.98822 15.9157 6.78473 15.7657 6.63471C15.6157 6.48468 15.4122 6.40039 15.2 6.40039H10.4C10.1878 6.40039 9.98435 6.48468 9.83432 6.63471C9.68429 6.78473 9.60001 6.98822 9.60001 7.20039V10.4004C9.60001 10.6126 9.68429 10.816 9.83432 10.9661C9.98435 11.1161 10.1878 11.2004 10.4 11.2004H15.2C15.4122 11.2004 15.6157 11.1161 15.7657 10.9661C15.9157 10.816 16 10.6126 16 10.4004V7.20039ZM14.4 9.20039C14.4 9.30648 14.3579 9.40822 14.2828 9.48323C14.2078 9.55825 14.1061 9.60039 14 9.60039H11.6C11.4939 9.60039 11.3922 9.55825 11.3172 9.48323C11.2421 9.40822 11.2 9.30648 11.2 9.20039V8.40039C11.2 8.2943 11.2421 8.19256 11.3172 8.11755C11.3922 8.04253 11.4939 8.00039 11.6 8.00039H14C14.1061 8.00039 14.2078 8.04253 14.2828 8.11755C14.3579 8.19256 14.4 8.2943 14.4 8.40039V9.20039Z" />
    <path d="M0.8 4C1.01217 4 1.21566 3.91571 1.36569 3.76569C1.51571 3.61566 1.6 3.41217 1.6 3.2V2C1.6 1.89391 1.64214 1.79217 1.71716 1.71716C1.79217 1.64214 1.89391 1.6 2 1.6H3.2C3.41217 1.6 3.61566 1.51571 3.76569 1.36569C3.91571 1.21566 4 1.01217 4 0.8C4 0.587827 3.91571 0.384344 3.76569 0.234315C3.61566 0.0842855 3.41217 0 3.2 0L0.8 0C0.587827 0 0.384344 0.0842855 0.234315 0.234315C0.0842855 0.384344 0 0.587827 0 0.8L0 3.2C0 3.41217 0.0842855 3.61566 0.234315 3.76569C0.384344 3.91571 0.587827 4 0.8 4Z" />
    <path d="M16 0.8C16 0.587827 15.9157 0.384344 15.7657 0.234315C15.6157 0.0842855 15.4122 0 15.2 0L12.8 0C12.5878 0 12.3843 0.0842855 12.2343 0.234315C12.0843 0.384344 12 0.587827 12 0.8C12 1.01217 12.0843 1.21566 12.2343 1.36569C12.3843 1.51571 12.5878 1.6 12.8 1.6H14C14.1061 1.6 14.2078 1.64214 14.2828 1.71716C14.3579 1.79217 14.4 1.89391 14.4 2V3.2C14.4 3.41217 14.4843 3.61566 14.6343 3.76569C14.7843 3.91571 14.9878 4 15.2 4C15.4122 4 15.6157 3.91571 15.7657 3.76569C15.9157 3.61566 16 3.41217 16 3.2V0.8Z" />
    <path d="M3.2 14.4H2C1.89391 14.4 1.79217 14.3579 1.71716 14.2828C1.64214 14.2078 1.6 14.1061 1.6 14V12.8C1.6 12.5878 1.51571 12.3843 1.36569 12.2343C1.21566 12.0843 1.01217 12 0.8 12C0.587827 12 0.384344 12.0843 0.234315 12.2343C0.0842855 12.3843 0 12.5878 0 12.8L0 15.2C0 15.4122 0.0842855 15.6157 0.234315 15.7657C0.384344 15.9157 0.587827 16 0.8 16H3.2C3.41217 16 3.61566 15.9157 3.76569 15.7657C3.91571 15.6157 4 15.4122 4 15.2C4 14.9878 3.91571 14.7843 3.76569 14.6343C3.61566 14.4843 3.41217 14.4 3.2 14.4Z" />
    <path d="M15.2 12C14.9878 12 14.7843 12.0843 14.6343 12.2343C14.4843 12.3843 14.4 12.5878 14.4 12.8V14C14.4 14.1061 14.3579 14.2078 14.2828 14.2828C14.2078 14.3579 14.1061 14.4 14 14.4H12.8C12.5878 14.4 12.3843 14.4843 12.2343 14.6343C12.0843 14.7843 12 14.9878 12 15.2C12 15.4122 12.0843 15.6157 12.2343 15.7657C12.3843 15.9157 12.5878 16 12.8 16H15.2C15.4122 16 15.6157 15.9157 15.7657 15.7657C15.9157 15.6157 16 15.4122 16 15.2V12.8C16 12.5878 15.9157 12.3843 15.7657 12.2343C15.6157 12.0843 15.4122 12 15.2 12Z" />
    <path d="M9.6 14.3996H8.4C8.29391 14.3996 8.19217 14.3575 8.11715 14.2825C8.04214 14.2074 8 14.1057 8 13.9996V10.3996C8 10.1874 7.91571 9.98395 7.76568 9.83392C7.61565 9.6839 7.41217 9.59961 7.2 9.59961H4C3.78782 9.59961 3.58434 9.6839 3.43431 9.83392C3.28428 9.98395 3.2 10.1874 3.2 10.3996C3.2 10.6118 3.28428 10.8153 3.43431 10.9653C3.58434 11.1153 3.78782 11.1996 4 11.1996H6C6.10608 11.1996 6.20782 11.2418 6.28284 11.3168C6.35785 11.3918 6.4 11.4935 6.4 11.5996V15.1996C6.4 15.4118 6.48428 15.6153 6.63431 15.7653C6.78434 15.9153 6.98782 15.9996 7.2 15.9996H9.6C9.81217 15.9996 10.0157 15.9153 10.1657 15.7653C10.3157 15.6153 10.4 15.4118 10.4 15.1996C10.4 14.9874 10.3157 14.784 10.1657 14.6339C10.0157 14.4839 9.81217 14.3996 9.6 14.3996Z" />
    <path d="M0.8 8.00039H4C4.21217 8.00039 4.41566 7.91611 4.56569 7.76608C4.71571 7.61605 4.8 7.41256 4.8 7.20039C4.8 6.98822 4.71571 6.78473 4.56569 6.63471C4.41566 6.48468 4.21217 6.40039 4 6.40039H0.8C0.587827 6.40039 0.384344 6.48468 0.234315 6.63471C0.0842855 6.78473 0 6.98822 0 7.20039C0 7.41256 0.0842855 7.61605 0.234315 7.76608C0.384344 7.91611 0.587827 8.00039 0.8 8.00039Z" />
    <path d="M4.8 4C4.8 4.21217 4.88429 4.41566 5.03432 4.56569C5.18435 4.71571 5.38783 4.8 5.6 4.8H10.4C10.6122 4.8 10.8157 4.71571 10.9657 4.56569C11.1157 4.41566 11.2 4.21217 11.2 4C11.2 3.78783 11.1157 3.58434 10.9657 3.43431C10.8157 3.28429 10.6122 3.2 10.4 3.2H9.2C9.09392 3.2 8.99217 3.15786 8.91716 3.08284C8.84215 3.00783 8.8 2.90609 8.8 2.8V0.8C8.8 0.587827 8.71572 0.384344 8.56569 0.234315C8.41566 0.0842855 8.21218 0 8 0C7.78783 0 7.58435 0.0842855 7.43432 0.234315C7.28429 0.384344 7.2 0.587827 7.2 0.8V2.8C7.2 2.90609 7.15786 3.00783 7.08285 3.08284C7.00783 3.15786 6.90609 3.2 6.8 3.2H5.6C5.38783 3.2 5.18435 3.28429 5.03432 3.43431C4.88429 3.58434 4.8 3.78783 4.8 4Z" />
</svg>