<svg width="16" height="16" viewBox="0 0 16 16" xmlns="http://www.w3.org/2000/svg">
<g clip-path="url(#clip0_2954_1039)">
<g clip-path="url(#clip1_2954_1039)">
<path d="M14.3333 1.33301H6.33334C5.89131 1.33301 5.46739 1.5086 5.15483 1.82116C4.84227 2.13372 4.66667 2.55765 4.66667 2.99967V8.33301C4.66667 8.77504 4.84227 9.19896 5.15483 9.51152C5.46739 9.82408 5.89131 9.99967 6.33334 9.99967H14.3333C14.5522 9.99967 14.7689 9.95656 14.9711 9.87281C15.1734 9.78905 15.3571 9.66628 15.5118 9.51152C15.6666 9.35676 15.7894 9.17302 15.8731 8.97081C15.9569 8.7686 16 8.55188 16 8.33301V2.99967C16 2.7808 15.9569 2.56408 15.8731 2.36187C15.7894 2.15966 15.6666 1.97593 15.5118 1.82116C15.3571 1.6664 15.1734 1.54363 14.9711 1.45988C14.7689 1.37612 14.5522 1.33301 14.3333 1.33301ZM14.6667 8.33301C14.6667 8.42141 14.6316 8.5062 14.569 8.56871C14.5065 8.63122 14.4217 8.66634 14.3333 8.66634H6.33334C6.24493 8.66634 6.16015 8.63122 6.09764 8.56871C6.03512 8.5062 6.00001 8.42141 6.00001 8.33301V2.99967C6.00001 2.91127 6.03512 2.82648 6.09764 2.76397C6.16015 2.70146 6.24493 2.66634 6.33334 2.66634H14.3333C14.4217 2.66634 14.5065 2.70146 14.569 2.76397C14.6316 2.82648 14.6667 2.91127 14.6667 2.99967V8.33301Z" fill="#4A46FF"/>
<path d="M13 10.3327C12.844 10.3296 12.6919 10.3812 12.5701 10.4787C12.4483 10.5761 12.3645 10.7132 12.3333 10.8661C12.3258 10.9032 12.3058 10.9366 12.2767 10.9608C12.2476 10.985 12.2112 10.9987 12.1733 10.9994H3.83333C3.78913 10.9994 3.74673 10.9818 3.71548 10.9506C3.68422 10.9193 3.66666 10.8769 3.66666 10.8327V5.15274C3.66588 5.11375 3.67879 5.07572 3.70315 5.04526C3.72751 5.01481 3.76178 4.99387 3.79999 4.98607C3.97681 4.96839 4.13935 4.8812 4.25187 4.74367C4.3644 4.60615 4.41768 4.42955 4.39999 4.25274C4.38231 4.07593 4.29512 3.91338 4.15759 3.80086C4.02007 3.68834 3.84347 3.63506 3.66666 3.65274C3.31304 3.65274 2.9739 3.79322 2.72385 4.04327C2.4738 4.29331 2.33333 4.63245 2.33333 4.98607V10.9861C2.33333 11.3397 2.4738 11.6788 2.72385 11.9289C2.9739 12.1789 3.31304 12.3194 3.66666 12.3194H12.3333C12.6869 12.3194 13.0261 12.1789 13.2761 11.9289C13.5262 11.6788 13.6667 11.3397 13.6667 10.9861C13.6632 10.8116 13.5914 10.6454 13.4667 10.5233C13.3421 10.4011 13.1745 10.3327 13 10.3327Z" fill="#4A46FF"/>
<path d="M10.6667 12.6661C10.5107 12.6629 10.3586 12.7146 10.2368 12.812C10.1149 12.9095 10.0312 13.0466 10 13.1994C9.99244 13.2365 9.97247 13.2699 9.94339 13.2942C9.91431 13.3184 9.87785 13.332 9.84 13.3328H1.5C1.4558 13.3328 1.4134 13.3152 1.38215 13.2839C1.35089 13.2527 1.33333 13.2103 1.33333 13.1661V7.48609C1.33554 7.4494 1.34982 7.41448 1.37393 7.38675C1.39804 7.35902 1.43065 7.34004 1.46667 7.33275C1.64348 7.31507 1.80602 7.22788 1.91854 7.09035C2.03107 6.95283 2.08435 6.77623 2.06667 6.59942C2.04899 6.42261 1.96179 6.26006 1.82426 6.14754C1.68674 6.03502 1.51014 5.98174 1.33333 5.99942C0.979711 5.99942 0.640573 6.1399 0.390524 6.38995C0.140476 6.63999 0 6.97913 0 7.33275L0 13.3328C0 13.6864 0.140476 14.0255 0.390524 14.2756C0.640573 14.5256 0.979711 14.6661 1.33333 14.6661H10C10.3536 14.6661 10.6928 14.5256 10.9428 14.2756C11.1929 14.0255 11.3333 13.6864 11.3333 13.3328C11.3333 13.1559 11.2631 12.9864 11.1381 12.8613C11.013 12.7363 10.8435 12.6661 10.6667 12.6661Z" fill="#4A46FF"/>
</g>
</g>
<defs>
<clipPath id="clip0_2954_1039">
<rect width="16" height="16" fill="white"/>
</clipPath>
<clipPath id="clip1_2954_1039">
<rect width="16" height="16" fill="white"/>
</clipPath>
</defs>
</svg>
