<svg width="16" height="16" viewBox="0 0 16 16" fill="none" xmlns="http://www.w3.org/2000/svg">
<path d="M15.6067 13.7267L12.5133 10.6667C13.359 9.3996 13.757 7.88622 13.6441 6.36701C13.5312 4.84779 12.9139 3.40987 11.8903 2.28165C10.8666 1.15344 9.49528 0.399647 7.99417 0.140018C6.49305 -0.119611 4.94822 0.129816 3.60509 0.848675C2.26196 1.56753 1.19756 2.7146 0.580974 4.10764C-0.0356121 5.50069 -0.169019 7.05983 0.201946 8.53737C0.572911 10.0149 1.42697 11.3261 2.62846 12.2627C3.82994 13.1993 5.30994 13.7076 6.83334 13.7067C8.18533 13.7081 9.50668 13.304 10.6267 12.5467L13.7267 15.6467C13.9765 15.8951 14.3144 16.0344 14.6667 16.0344C15.0189 16.0344 15.3569 15.8951 15.6067 15.6467C15.7357 15.5223 15.8384 15.3732 15.9085 15.2083C15.9786 15.0433 16.0147 14.8659 16.0147 14.6867C16.0147 14.5075 15.9786 14.3301 15.9085 14.1652C15.8384 14.0002 15.7357 13.8511 15.6067 13.7267ZM6.83334 2.00005C7.789 2.00005 8.72321 2.28335 9.5179 2.81415C10.3126 3.34495 10.9321 4.09942 11.2981 4.98221C11.6641 5.865 11.7602 6.83648 11.5743 7.77387C11.3883 8.71126 10.9287 9.57249 10.2534 10.2487C9.57808 10.9249 8.71749 11.3858 7.78035 11.573C6.84322 11.7603 5.87161 11.6655 4.98832 11.3007C4.10503 10.9359 3.3497 10.3174 2.81781 9.52349C2.28591 8.72953 2.00132 7.79571 2.00001 6.84005C2 5.55755 2.50902 4.32749 3.41525 3.42001C4.32149 2.51252 5.55085 2.00181 6.83334 2.00005Z" fill="#5B5A87"/>
</svg>
