<svg width="16" height="14" viewBox="0 0 16 14" fill="none" xmlns="http://www.w3.org/2000/svg">
<path d="M14.3332 0.333008H6.33317C5.89114 0.333008 5.46722 0.508603 5.15466 0.821163C4.8421 1.13372 4.6665 1.55765 4.6665 1.99967V7.33301C4.6665 7.77504 4.8421 8.19896 5.15466 8.51152C5.46722 8.82408 5.89114 8.99967 6.33317 8.99967H14.3332C14.552 8.99967 14.7688 8.95656 14.971 8.87281C15.1732 8.78905 15.3569 8.66628 15.5117 8.51152C15.6664 8.35676 15.7892 8.17302 15.873 7.97081C15.9567 7.7686 15.9998 7.55188 15.9998 7.33301V1.99967C15.9998 1.7808 15.9567 1.56408 15.873 1.36187C15.7892 1.15966 15.6664 0.975927 15.5117 0.821163C15.3569 0.666399 15.1732 0.543633 14.971 0.459875C14.7688 0.376117 14.552 0.333008 14.3332 0.333008ZM14.6665 7.33301C14.6665 7.42141 14.6314 7.5062 14.5689 7.56871C14.5064 7.63122 14.4216 7.66634 14.3332 7.66634H6.33317C6.24476 7.66634 6.15998 7.63122 6.09747 7.56871C6.03496 7.5062 5.99984 7.42141 5.99984 7.33301V1.99967C5.99984 1.91127 6.03496 1.82648 6.09747 1.76397C6.15998 1.70146 6.24476 1.66634 6.33317 1.66634H14.3332C14.4216 1.66634 14.5064 1.70146 14.5689 1.76397C14.6314 1.82648 14.6665 1.91127 14.6665 1.99967V7.33301Z" fill="#5B5A87"/>
<path d="M13.0002 9.33274C12.8442 9.3296 12.6921 9.38124 12.5703 9.47869C12.4484 9.57614 12.3647 9.71322 12.3335 9.86607C12.3259 9.90316 12.306 9.93658 12.2769 9.96081C12.2478 9.98504 12.2113 9.99866 12.1735 9.99941H3.8335C3.78929 9.99941 3.7469 9.98185 3.71564 9.95059C3.68439 9.91934 3.66683 9.87694 3.66683 9.83274V4.15274C3.66604 4.11375 3.67895 4.07572 3.70332 4.04526C3.72768 4.01481 3.76195 3.99387 3.80016 3.98607C3.97697 3.96839 4.13952 3.8812 4.25204 3.74367C4.36456 3.60615 4.41784 3.42955 4.40016 3.25274C4.38248 3.07593 4.29529 2.91338 4.15776 2.80086C4.02023 2.68834 3.84364 2.63506 3.66683 2.65274C3.31321 2.65274 2.97407 2.79322 2.72402 3.04327C2.47397 3.29331 2.3335 3.63245 2.3335 3.98607V9.98607C2.3335 10.3397 2.47397 10.6788 2.72402 10.9289C2.97407 11.1789 3.31321 11.3194 3.66683 11.3194H12.3335C12.6871 11.3194 13.0263 11.1789 13.2763 10.9289C13.5264 10.6788 13.6668 10.3397 13.6668 9.98607C13.6633 9.81158 13.5916 9.64542 13.4669 9.52327C13.3423 9.40111 13.1747 9.33271 13.0002 9.33274Z" fill="#5B5A87"/>
<path d="M10.6667 11.6661C10.5107 11.6629 10.3586 11.7146 10.2368 11.812C10.1149 11.9095 10.0312 12.0466 10 12.1994C9.99244 12.2365 9.97247 12.2699 9.94339 12.2942C9.91431 12.3184 9.87785 12.332 9.84 12.3328H1.5C1.4558 12.3328 1.4134 12.3152 1.38215 12.2839C1.35089 12.2527 1.33333 12.2103 1.33333 12.1661V6.48609C1.33554 6.4494 1.34982 6.41448 1.37393 6.38675C1.39804 6.35902 1.43065 6.34004 1.46667 6.33275C1.64348 6.31507 1.80602 6.22788 1.91854 6.09035C2.03107 5.95283 2.08435 5.77623 2.06667 5.59942C2.04899 5.42261 1.96179 5.26006 1.82426 5.14754C1.68674 5.03502 1.51014 4.98174 1.33333 4.99942C0.979711 4.99942 0.640573 5.1399 0.390524 5.38995C0.140476 5.63999 0 5.97913 0 6.33275L0 12.3328C0 12.6864 0.140476 13.0255 0.390524 13.2756C0.640573 13.5256 0.979711 13.6661 1.33333 13.6661H10C10.3536 13.6661 10.6928 13.5256 10.9428 13.2756C11.1929 13.0255 11.3333 12.6864 11.3333 12.3328C11.3333 12.1559 11.2631 11.9864 11.1381 11.8613C11.013 11.7363 10.8435 11.6661 10.6667 11.6661Z" fill="#5B5A87"/>
</svg>
