<svg width="16" height="16" viewBox="0 0 16 16" xmlns="http://www.w3.org/2000/svg">
<path d="M14.1543 9.02857V6.97143L15.0686 5.81829C15.223 5.625 15.3155 5.38962 15.3341 5.14292C15.3526 4.89621 15.2964 4.64964 15.1726 4.43543L14.672 3.56914C14.5485 3.35475 14.3633 3.18257 14.1404 3.07512C13.9176 2.96767 13.6675 2.92994 13.4229 2.96686L11.9634 3.18857L10.1783 2.16L9.64571 0.781714C9.55587 0.551631 9.39877 0.35397 9.19489 0.214522C8.99102 0.0750741 8.74985 0.000315104 8.50285 0L7.49942 0C7.25242 0.000315104 7.01125 0.0750741 6.80738 0.214522C6.60351 0.35397 6.44641 0.551631 6.35657 0.781714L5.81828 2.15314L4.03314 3.18171L2.57142 2.96457C2.32679 2.92766 2.07671 2.96539 1.85386 3.07284C1.631 3.18029 1.44574 3.35246 1.32228 3.56686L0.82171 4.43314C0.697925 4.64735 0.641633 4.89392 0.660187 5.14063C0.678741 5.38734 0.771279 5.62271 0.92571 5.816L1.84571 6.97143V9.02857L0.92571 10.184C0.771279 10.3773 0.678741 10.6127 0.660187 10.8594C0.641633 11.1061 0.697925 11.3526 0.82171 11.5669L1.32228 12.4331C1.44574 12.6475 1.631 12.8197 1.85386 12.9272C2.07671 13.0346 2.32679 13.0723 2.57142 13.0354L4.03085 12.8137L5.816 13.8423L6.35428 15.2137C6.44412 15.4438 6.60123 15.6415 6.8051 15.7809C7.00897 15.9204 7.25014 15.9951 7.49714 15.9954H8.49828C8.74528 15.9951 8.98645 15.9204 9.19032 15.7809C9.39419 15.6415 9.5513 15.4438 9.64114 15.2137L10.1794 13.8423L11.9646 12.8137L13.424 13.0354C13.6686 13.0723 13.9187 13.0346 14.1416 12.9272C14.3644 12.8197 14.5497 12.6475 14.6731 12.4331L15.1737 11.5669C15.2975 11.3526 15.3538 11.1061 15.3352 10.8594C15.3167 10.6127 15.2241 10.3773 15.0697 10.184L14.1543 9.02857ZM8 10.5714C7.49142 10.5714 6.99426 10.4206 6.57139 10.1381C6.14852 9.85551 5.81893 9.45391 5.6243 8.98404C5.42968 8.51418 5.37876 7.99715 5.47798 7.49834C5.57719 6.99953 5.8221 6.54135 6.18172 6.18173C6.54134 5.8221 6.99953 5.5772 7.49833 5.47798C7.99714 5.37876 8.51417 5.42968 8.98404 5.62431C9.45391 5.81893 9.85551 6.14852 10.1381 6.57139C10.4206 6.99426 10.5714 7.49142 10.5714 8C10.5714 8.68199 10.3005 9.33604 9.81827 9.81827C9.33603 10.3005 8.68198 10.5714 8 10.5714Z" fill="#5B5A87"/>
</svg>
