<svg width="19" height="19" viewBox="0 0 19 19" fill="none" xmlns="http://www.w3.org/2000/svg">
<g clip-path="url(#clip0_57_402)">
<path d="M18.5105 14.0184L16.1491 11.6565C15.5191 11.0265 14.4183 11.0254 13.7872 11.6565L13.3934 12.0503L18.1169 16.7735L18.5105 16.3798C19.1643 15.726 19.1621 14.669 18.5105 14.0184Z" fill="white"/>
<path d="M12.5844 12.8156C12.0875 13.2006 11.3786 13.1852 10.9246 12.7302L6.25558 8.05796C5.80051 7.60289 5.78519 6.8935 6.17012 6.39783L1.45757 1.68555C-0.569747 4.04867 -0.490481 7.60942 1.74702 9.84692L9.1356 17.2387C11.2827 19.3858 14.7998 19.6706 17.2971 17.5281L12.5844 12.8156Z" fill="white"/>
<path d="M7.3292 2.83483L4.96782 0.472935C4.33778 -0.157107 3.23701 -0.158183 2.60593 0.472935L2.21216 0.866702L6.93558 5.58986L7.3292 5.19621C7.98299 4.54242 7.98084 3.48539 7.3292 2.83483Z" fill="white"/>
</g>
<defs>
<clipPath id="clip0_57_402">
<rect width="19" height="19" fill="white"/>
</clipPath>
</defs>
</svg>
