<svg width="28" height="23" viewBox="0 0 28 23" fill="none" xmlns="http://www.w3.org/2000/svg">
<path d="M0 20.3902C2.54043 22.037 5.5641 23 8.80868 23C19.4675 23 25.501 13.9005 25.142 5.72209C26.2604 4.89866 27.2406 3.87985 28.0138 2.72148C26.9783 3.18204 25.8738 3.48908 24.714 3.62864C25.9014 2.91687 26.8126 1.77245 27.2406 0.418689C26.1361 1.08859 24.9073 1.56311 23.5957 1.82828C22.5464 0.697815 21.0552 0 19.3984 0C15.6844 0 12.9645 3.50303 13.8067 7.13167C9.01578 6.89442 4.77712 4.57767 1.94675 1.06068C0.441814 3.67051 1.17357 7.08981 3.72781 8.82039C2.78895 8.79248 1.90533 8.52731 1.11834 8.09466C1.06312 10.7882 2.96844 13.3004 5.72978 13.8586C4.91519 14.0819 4.03156 14.1377 3.13412 13.9563C3.86588 16.2591 5.99211 17.9478 8.50493 17.9897C6.08876 19.9017 3.05128 20.753 0 20.3902Z" fill="white"/>
</svg>
