<svg width="16" height="11" viewBox="0 0 16 11" fill="none" xmlns="http://www.w3.org/2000/svg">
<path d="M7.99996 8.71497C8.83329 8.71497 9.54174 8.41814 10.1253 7.82448C10.7084 7.23038 11 6.50912 11 5.66072C11 4.81232 10.7084 4.09107 10.1253 3.49696C9.54174 2.9033 8.83329 2.60648 7.99996 2.60648C7.16663 2.60648 6.45818 2.9033 5.87463 3.49696C5.29152 4.09107 4.99996 4.81232 4.99996 5.66072C4.99996 6.50912 5.29152 7.23038 5.87463 7.82448C6.45818 8.41814 7.16663 8.71497 7.99996 8.71497ZM7.99996 7.49327C7.49996 7.49327 7.07507 7.31499 6.72529 6.95844C6.37507 6.60233 6.19996 6.16976 6.19996 5.66072C6.19996 5.15168 6.37507 4.71888 6.72529 4.36233C7.07507 4.00623 7.49996 3.82817 7.99996 3.82817C8.49996 3.82817 8.92507 4.00623 9.27529 4.36233C9.62507 4.71888 9.79996 5.15168 9.79996 5.66072C9.79996 6.16976 9.62507 6.60233 9.27529 6.95844C8.92507 7.31499 8.49996 7.49327 7.99996 7.49327ZM7.99996 10.7511C6.37774 10.7511 4.89996 10.2901 3.56663 9.3679C2.23329 8.44619 1.26663 7.21047 0.666626 5.66072C1.26663 4.11097 2.23329 2.87502 3.56663 1.95287C4.89996 1.03116 6.37774 0.570312 7.99996 0.570312C9.62218 0.570312 11.1 1.03116 12.4333 1.95287C13.7666 2.87502 14.7333 4.11097 15.3333 5.66072C14.7333 7.21047 13.7666 8.44619 12.4333 9.3679C11.1 10.2901 9.62218 10.7511 7.99996 10.7511ZM7.99996 9.39369C9.25552 9.39369 10.4084 9.05704 11.4586 8.38375C12.5084 7.71091 13.3111 6.80324 13.8666 5.66072C13.3111 4.51821 12.5084 3.6103 11.4586 2.93701C10.4084 2.26417 9.25552 1.92775 7.99996 1.92775C6.7444 1.92775 5.59152 2.26417 4.54129 2.93701C3.49152 3.6103 2.68885 4.51821 2.13329 5.66072C2.68885 6.80324 3.49152 7.71091 4.54129 8.38375C5.59152 9.05704 6.7444 9.39369 7.99996 9.39369Z" fill="#5B5A87"/>
</svg>
