<svg width="12" height="12" viewBox="0 0 12 12" fill="none" xmlns="http://www.w3.org/2000/svg">
<path d="M0.0285645 12L0.872065 8.9185C0.351564 8.0165 0.0780645 6.994 0.0785645 5.9455C0.0800645 2.6675 2.74756 0 6.02506 0C7.61557 0.0005 9.10857 0.62 10.2316 1.744C11.3541 2.868 11.9721 4.362 11.9716 5.951C11.9701 9.2295 9.30257 11.897 6.02506 11.897C5.03007 11.8965 4.04956 11.647 3.18106 11.173L0.0285645 12ZM3.32706 10.0965C4.16506 10.594 4.96506 10.892 6.02306 10.8925C8.74707 10.8925 10.9661 8.6755 10.9676 5.95C10.9686 3.219 8.76007 1.005 6.02706 1.004C3.30106 1.004 1.08356 3.221 1.08256 5.946C1.08206 7.0585 1.40806 7.8915 1.95556 8.763L1.45606 10.587L3.32706 10.0965ZM9.02057 7.3645C8.98357 7.3025 8.88457 7.2655 8.73557 7.191C8.58707 7.1165 7.85656 6.757 7.72007 6.7075C7.58406 6.658 7.48506 6.633 7.38557 6.782C7.28657 6.9305 7.00156 7.2655 6.91507 7.3645C6.82857 7.4635 6.74157 7.476 6.59307 7.4015C6.44457 7.327 5.96556 7.1705 5.39806 6.664C4.95656 6.27 4.65806 5.7835 4.57156 5.6345C4.48506 5.486 4.56256 5.4055 4.63656 5.3315C4.70356 5.265 4.78506 5.158 4.85956 5.071C4.93506 4.985 4.95957 4.923 5.00956 4.8235C5.05906 4.7245 5.03456 4.6375 4.99707 4.563C4.95957 4.489 4.66256 3.7575 4.53906 3.46C4.41807 3.1705 4.29557 3.2095 4.20457 3.205L3.91956 3.2C3.82056 3.2 3.65956 3.237 3.52356 3.386C3.38756 3.535 3.00356 3.894 3.00356 4.6255C3.00356 5.357 3.53606 6.0635 3.61006 6.1625C3.68456 6.2615 4.65756 7.7625 6.14807 8.406C6.50256 8.559 6.77956 8.6505 6.99507 8.719C7.35107 8.832 7.67507 8.816 7.93107 8.778C8.21657 8.7355 8.81007 8.4185 8.93407 8.0715C9.05807 7.724 9.05807 7.4265 9.02057 7.3645Z" fill="#4A46FF"/>
</svg>
